<svg id="Capa_1" data-name="Capa 1" xmlns="http://www.w3.org/2000/svg" viewBox="0 0 49.18 40.32"><defs><style>.cls-1{fill:#c4282c;stroke:#ca2128;stroke-miterlimit:10;stroke-width:1.8px;}</style></defs><title>icon-hand</title><path class="cls-1" d="M32.17,12.7c-1.25-1.56-2.86-1.9-4.2-.88a2.46,2.46,0,0,0-1,2.08l-.38-.51a3.09,3.09,0,0,0-4.16-.57,2.7,2.7,0,0,0-1.1,2.42A3.21,3.21,0,0,0,17,15a2.88,2.88,0,0,0-1.17,2.62l-1.13-1.5.06-.12a6.91,6.91,0,0,0-.66-7.25l-.39-.47a6.94,6.94,0,0,0-11,8.33l.34.51a7,7,0,0,0,6.9,2.61l8.46,11.21a.18.18,0,0,1,0,.19c-.06.11-.22.18-.47.18A18.7,18.7,0,0,1,15.46,31L14.84,31a15.5,15.5,0,0,0-4.59-.25c-3,.53-4.07,2.67-4,3.89a2.09,2.09,0,0,0,.69,1.53,3.36,3.36,0,0,0,2.54.59c3.21-.26,8.18,1.14,10.94,2.58A20.78,20.78,0,0,0,27.58,41a16.15,16.15,0,0,1,3.76.68,3.94,3.94,0,0,1,.57.33l1.76,2.34a.31.31,0,0,0,.49-.37l-1.79-2.38-.07-.07a4.61,4.61,0,0,0-.73-.43,16.35,16.35,0,0,0-3.93-.73,20.32,20.32,0,0,1-6.95-1.62c-2.9-1.51-7.91-2.92-11.27-2.65a2.81,2.81,0,0,1-2.09-.44,1.51,1.51,0,0,1-.48-1.1c-.06-1,.84-2.79,3.5-3.25a15.35,15.35,0,0,1,4.4.26l.62.09a19.47,19.47,0,0,0,2.55.22,1,1,0,0,0,1-.51.79.79,0,0,0-.07-.84L10.27,19.17h0L6.62,14.34A3.67,3.67,0,0,1,5.9,12a2.24,2.24,0,0,1,.95-1.5c1.2-.91,2.47-.5,3.76,1.21l3.47,4.6h0l5.66,7.5a.31.31,0,1,0,.49-.37l-3.41-4.52c-.12-.21-1.14-2.22.53-3.48a2.74,2.74,0,0,1,3.79.52l3,4a.31.31,0,0,0,.49-.37l-2.4-3.18a2.45,2.45,0,0,1,.54-3.07c1.69-1.27,3.29.44,3.31.45l2.35,3.12a.31.31,0,1,0,.49-.37l-1-1.37a2.19,2.19,0,0,1,.45-2.83c1.54-1.16,2.86.16,3.36.78.65.81,9.69,13,9.77,13.14l.13.23A13.86,13.86,0,0,1,42.72,29l.1.29a5.37,5.37,0,0,0,.72,1.31l4.87,6.44a.31.31,0,1,0,.49-.37L44,30.25h0a4.75,4.75,0,0,1-.63-1.14l-.1-.29a14.66,14.66,0,0,0-1.18-2.66L42,25.89C41.59,25.39,32.82,13.52,32.17,12.7ZM6.48,10A2.83,2.83,0,0,0,5.3,11.91a4.22,4.22,0,0,0,.84,2.8l3.33,4.41a6.34,6.34,0,1,1,4.79-3.6l-3.16-4.19C9.19,8.8,7.53,9.21,6.48,10Z" transform="translate(-0.68 -5.03)"/></svg>