<svg id="Capa_1" data-name="Capa 1" xmlns="http://www.w3.org/2000/svg" viewBox="0 0 48.34 48.34"><defs><style>.cls-1{fill:#ca2128;}</style></defs><title>icon-info</title><path id="Info_Icon_-_Inactive" data-name="Info Icon - Inactive" class="cls-1" d="M22.46,14a2.81,2.81,0,1,1,2.81,2.81A2.81,2.81,0,0,1,22.46,14ZM27.51,38.1h2.24v1.12h-9V38.1H23V21.26H20.78V20.14h6.73Z" transform="translate(-1.1 -1.02)"/><path class="cls-1" d="M25.27,3.84A21.35,21.35,0,1,1,3.92,25.19,21.37,21.37,0,0,1,25.27,3.84m0-2.82A24.17,24.17,0,1,0,49.44,25.19,24.17,24.17,0,0,0,25.27,1Z" transform="translate(-1.1 -1.02)"/></svg>