<svg id="Capa_1" data-name="Capa 1" xmlns="http://www.w3.org/2000/svg" viewBox="0 0 129 25.1"><defs><style>.cls-1{fill:#fff;}.cls-2{fill:#da0100;}.cls-3{fill:#a42b31;}.cls-4{fill:#d15a2d;}.cls-5{fill:#ca2128;}</style></defs><title>logo-drivertech</title><path class="cls-1" d="M28,6.36c2.12,0,3.21.33,3.94,1.06,1.16,1.16,1.31,3.06.43,6.55C31.55,17.06,30.73,18.26,30,19c-1.37,1.37-2.82,1.61-5,1.61H17.64L21.19,6.36ZM24.79,9.57l-2,7.88h2c1.06,0,1.51-.1,1.84-.43s.61-.88,1.27-3.51.61-3.35.33-3.64-.55-.31-1.78-.31Z" transform="translate(-1.04 -0.96)"/><path class="cls-1" d="M44.74,20.65H40.27a25.83,25.83,0,0,1,.47-2.88c.27-1.16.14-1.53-.08-1.75s-.45-.27-1.37-.27H37.51l-1.21,4.9H31.91L35.47,6.36H43.8c1.53,0,2.49.26,3,.94s.63,1.84.18,3.57c-.59,2.31-1.59,3-3.23,3.33v0c1.43.43,2,1,1.53,3.19C45,18.67,44.84,19.88,44.74,20.65ZM39,9.61l-.76,3.06h2.25c.79,0,1.08,0,1.29-.25a2.49,2.49,0,0,0,.55-1.22c.18-.77.14-1.19-.06-1.39s-.37-.2-1.26-.2Z" transform="translate(-1.04 -0.96)"/><path class="cls-1" d="M46.21,20.65,49.76,6.36h4.39L50.6,20.65Z" transform="translate(-1.04 -0.96)"/><path class="cls-1" d="M54.8,6.36h4.43l.22,10.37h.22L64.91,6.36h4.74l-7.31,13c-.57,1-1,1.35-2,1.35h-3c-1.26,0-1.61-.39-1.69-1.7Z" transform="translate(-1.04 -0.96)"/><path class="cls-1" d="M78.18,20.65H66.62L70.18,6.36H81.74l-.82,3.29H73.75l-.55,2.23h5.19l-.78,3H72.44l-.61,2.45H79Z" transform="translate(-1.04 -0.96)"/><path class="cls-1" d="M89.17,8.32V20.65H86.88V8.32H82.39v-2H93.66v2Z" transform="translate(-1.04 -0.96)"/><path class="cls-1" d="M104.56,20.65H94.8V6.36h9.76v2H97.09v3.94h6.19v2H97.09v4.47h7.47Z" transform="translate(-1.04 -0.96)"/><path class="cls-1" d="M115.71,20.08c-.47.43-1,.57-2.33.57h-4c-1.35,0-1.86-.14-2.33-.57-.8-.72-1.29-1.76-1.29-6.58s.49-5.86,1.29-6.57c.47-.43,1-.57,2.33-.57h4c1.35,0,1.86.14,2.33.57.8.71,1.16,1.65,1.2,4.12h-2.29c-.06-1.8-.24-2.31-.47-2.51s-.33-.22-1-.22h-3.47c-.69,0-.86.08-1,.22s-.51.84-.51,5,.29,4.76.51,5,.33.23,1,.23h3.47c.69,0,.86-.08,1-.23s.41-.61.47-2.74h2.31C116.83,18.57,116.51,19.37,115.71,20.08Z" transform="translate(-1.04 -0.96)"/><path class="cls-1" d="M130,20.65h-2.29V14.22h-6.82v6.43h-2.29V6.36h2.29v5.9h6.82V6.36H130Z" transform="translate(-1.04 -0.96)"/><polygon class="cls-2" points="5.01 9.21 0 12.11 0 14.36 5.01 11.46 10.03 14.36 10.03 12.11 5.01 9.21"/><polygon class="cls-3" points="9.94 23.68 4.93 20.79 4.93 18.54 9.94 21.44 14.96 18.54 14.96 20.79 9.94 23.68"/><polygon class="cls-3" points="0 14.96 5.01 12.06 6.96 13.19 1.95 16.08 1.95 21.87 0 20.75 0 14.96"/><polygon class="cls-4" points="12.5 10.67 7.48 7.78 5.54 8.9 10.55 11.79 10.55 17.59 12.5 16.46 12.5 10.67"/><polygon class="cls-4" points="2.48 22.21 2.48 16.42 4.42 15.29 4.42 21.08 9.44 23.98 7.49 25.1 2.48 22.21"/><polygon class="cls-2" points="14.96 17.94 14.96 12.15 13.01 11.02 13.01 16.82 8 19.71 9.94 20.83 14.96 17.94"/><path class="cls-5" d="M15.55,9.13V8a7,7,0,0,0-7-7h0a7,7,0,0,0-7,7V9.52h0V12l3.24-1.88V9.52h0V8A3.78,3.78,0,1,1,12.3,8V9.52h0v.64L15.55,12V9.52h0Z" transform="translate(-1.04 -0.96)"/></svg>